<svg width="30" height="30" viewBox="0 0 30 30" fill="none" xmlns="http://www.w3.org/2000/svg">
<rect x="5.5" y="6.5" width="18" height="19" rx="0.5" fill="#1D5FF4" stroke="#1758ED"/>
<mask id="path-2-inside-1_487_44292" fill="white">
<path d="M5 7C5 6.44772 5.44772 6 6 6H23C23.5523 6 24 6.44772 24 7V11C24 11.5523 23.5523 12 23 12H6C5.44771 12 5 11.5523 5 11V7Z"/>
</mask>
<path d="M5 7C5 6.44772 5.44772 6 6 6H23C23.5523 6 24 6.44772 24 7V11C24 11.5523 23.5523 12 23 12H6C5.44771 12 5 11.5523 5 11V7Z" fill="#DDDDDD"/>
<path d="M4 7C4 5.89543 4.89543 5 6 5H23C24.1046 5 25 5.89543 25 7H23H6H4ZM25 11C25 12.1046 24.1046 13 23 13H6C4.89543 13 4 12.1046 4 11H6H23H25ZM6 13C4.89543 13 4 12.1046 4 11V7C4 5.89543 4.89543 5 6 5V7V11V13ZM23 5C24.1046 5 25 5.89543 25 7V11C25 12.1046 24.1046 13 23 13V11V7V5Z" fill="#1758ED" mask="url(#path-2-inside-1_487_44292)"/>
<path d="M7 9V8H12V9H7Z" fill="white"/>
<path d="M17 9V8H22V9H17Z" fill="white"/>
<path d="M9 6H10V8H9V6Z" fill="#666666"/>
<path d="M19 6H20V8H19V6Z" fill="#666666"/>
<mask id="path-5-inside-2_487_44292" fill="white">
<path d="M9 5H10V6H9V5Z"/>
<path d="M8 5V4L11 4V5L8 5Z"/>
<path d="M7 4L7 3L12 3V4L7 4Z"/>
<path d="M19 5H20V6H19V5Z"/>
<path d="M18 5V4L21 4V5L18 5Z"/>
<path d="M17 4V3L22 3V4L17 4Z"/>
</mask>
<path d="M9 5H10V6H9V5Z" fill="#666666"/>
<path d="M8 5V4L11 4V5L8 5Z" fill="#666666"/>
<path d="M7 4L7 3L12 3V4L7 4Z" fill="#666666"/>
<path d="M19 5H20V6H19V5Z" fill="#666666"/>
<path d="M18 5V4L21 4V5L18 5Z" fill="#666666"/>
<path d="M17 4V3L22 3V4L17 4Z" fill="#666666"/>
<path d="M9 5V4H8V5H9ZM10 5H11V4H10V5ZM10 6V7H11V6H10ZM9 6H8V7H9V6ZM8 5H7V6H8L8 5ZM8 4L8 3L7 3V4H8ZM11 4H12V3L11 3V4ZM11 5V6H12V5H11ZM7 4H6V5H7L7 4ZM7 3L7 2H6V3L7 3ZM12 3H13V2H12V3ZM12 4V5H13V4H12ZM19 5V4H18V5H19ZM20 5H21V4H20V5ZM20 6V7H21V6H20ZM19 6H18V7H19V6ZM18 5H17V6H18V5ZM18 4V3L17 3V4H18ZM21 4H22V3L21 3V4ZM21 5V6H22V5H21ZM17 4H16V5H17V4ZM17 3V2H16V3H17ZM22 3H23V2H22V3ZM22 4V5H23V4H22ZM9 6H10V4H9V6ZM9 5V6H11V5H9ZM10 5H9V7H10V5ZM10 6V5H8V6H10ZM9 5V4H7V5H9ZM8 5L11 5V3L8 3L8 5ZM10 4V5H12V4H10ZM11 4L8 4L8 6L11 6V4ZM8 4V3L6 3L6 4H8ZM7 4L12 4V2L7 2L7 4ZM11 3V4H13V3H11ZM12 3L7 3L7 5L12 5V3ZM19 6H20V4H19V6ZM19 5V6H21V5H19ZM20 5H19V7H20V5ZM20 6V5H18V6H20ZM19 5V4H17V5H19ZM18 5L21 5V3L18 3V5ZM20 4V5H22V4H20ZM21 4L18 4V6L21 6V4ZM18 4V3H16V4H18ZM17 4L22 4V2L17 2V4ZM21 3V4H23V3H21ZM22 3L17 3V5L22 5V3Z" fill="#666666" mask="url(#path-5-inside-2_487_44292)"/>
<path d="M24 13H25V16H24V13Z" fill="#666666"/>
<path d="M24 18H25V21H24V18Z" fill="#666666"/>
<path d="M6.71484 22V13.5156H10.043C11.9707 13.5156 13.0781 14.5996 13.0781 16.2812C13.0781 17.4414 12.5449 18.2852 11.5781 18.7012L13.3828 22H11.4375L9.81445 18.9883H8.47266V22H6.71484ZM8.47266 17.5586H9.71484C10.7578 17.5586 11.2676 17.1309 11.2617 16.2812C11.2676 15.4258 10.7578 14.9629 9.71484 14.957H8.47266V17.5586Z" fill="#1D5FF4"/>
<path fill-rule="evenodd" clip-rule="evenodd" d="M6.01465 22.6998V12.8154H10.0428C11.135 12.8154 12.0809 13.124 12.7598 13.7549C13.4444 14.391 13.7779 15.2815 13.7779 16.2811C13.7779 17.4165 13.3414 18.3597 12.5202 18.9649L14.5635 22.6998H11.0194L9.39632 19.6881H9.17246V22.6998H6.01465ZM8.47246 18.9881H9.81426L11.4373 21.9998H13.3826L11.5779 18.701C11.7429 18.63 11.8952 18.5466 12.0344 18.4513C12.7111 17.9879 13.0779 17.2433 13.0779 16.2811C13.0779 14.5994 11.9705 13.5154 10.0428 13.5154H6.71465V21.9998H8.47246V18.9881ZM10.5615 16.2763C10.5635 15.9923 10.4845 15.8828 10.4223 15.8287C10.3407 15.7579 10.1445 15.6595 9.7126 15.6568H9.17246V16.8584H9.71465C10.1588 16.8584 10.3563 16.7644 10.4346 16.6994C10.4864 16.6565 10.5635 16.5646 10.5615 16.2859L10.5615 16.2763ZM8.47246 17.5584V14.9568H9.71465C10.7576 14.9627 11.2674 15.4256 11.2615 16.2811C11.2674 17.1307 10.7576 17.5584 9.71465 17.5584H8.47246Z" fill="white"/>
<path d="M21.1436 14.2227V22H19.7471L16.3311 17.0586H16.2666V22H14.6553V14.2227H16.0732L19.4678 19.1641H19.543V14.2227H21.1436Z" fill="white"/>
</svg>
